<svg width="19" height="19" viewBox="0 0 19 19" fill="none" xmlns="http://www.w3.org/2000/svg">
<path d="M3.34195 15.6581C3.70918 16.0259 4.14546 16.3174 4.62573 16.516C5.10599 16.7147 5.62077 16.8164 6.14049 16.8155C6.66032 16.8164 7.17521 16.7146 7.6556 16.516C8.13599 16.3174 8.57242 16.0258 8.93982 15.6581L11.1787 13.4185L10.0592 12.299L7.82041 14.5387C7.37428 14.9828 6.7704 15.2322 6.14089 15.2322C5.51138 15.2322 4.90749 14.9828 4.46137 14.5387C4.01685 14.0928 3.76724 13.4888 3.76724 12.8592C3.76724 12.2295 4.01685 11.6256 4.46137 11.1796L6.70099 8.9408L5.58157 7.82138L3.34195 10.0602C2.6008 10.8032 2.18457 11.8097 2.18457 12.8592C2.18457 13.9086 2.6008 14.9151 3.34195 15.6581V15.6581ZM15.6571 8.9408C16.3979 8.19765 16.8138 7.19115 16.8138 6.14186C16.8138 5.09257 16.3979 4.08608 15.6571 3.34293C14.9142 2.60177 13.9076 2.18555 12.8582 2.18555C11.8088 2.18555 10.8022 2.60177 10.0592 3.34293L7.82041 5.58255L8.93982 6.70197L11.1787 4.46234C11.6248 4.01821 12.2287 3.76887 12.8582 3.76887C13.4877 3.76887 14.0916 4.01821 14.5377 4.46234C14.9822 4.90827 15.2318 5.51222 15.2318 6.14186C15.2318 6.7715 14.9822 7.37546 14.5377 7.82138L12.2981 10.0602L13.4175 11.1796L15.6571 8.9408Z" fill="#FFFCED"/>
<path d="M6.70029 13.4186L5.58008 12.2991L12.299 5.58105L13.4184 6.70126L6.70029 13.4186Z" fill="#FFFCED"/>
</svg>
