<svg width="19" height="15" viewBox="0 0 19 15" fill="none" xmlns="http://www.w3.org/2000/svg">
<path d="M12.085 0.405029C11.903 0.731076 11.7408 1.0678 11.5992 1.41336C10.2084 1.19341 8.79168 1.19341 7.40088 1.41336C7.25934 1.0678 7.0971 0.731076 6.91505 0.405029C5.60494 0.62888 4.33133 1.02977 3.12921 1.5967C0.979575 4.69896 0.00469688 8.46524 0.379213 12.2209C1.7801 13.274 3.35238 14.0772 5.02671 14.595C5.40797 14.0914 5.74822 13.558 6.04421 13C5.49795 12.7986 4.9729 12.5438 4.47671 12.2392C4.6128 12.1486 4.74154 12.0475 4.86171 11.9367C6.30863 12.6337 7.89402 12.9956 9.50005 12.9956C11.1061 12.9956 12.6915 12.6337 14.1384 11.9367C14.2667 12.0467 14.395 12.1475 14.5234 12.2392C14.0245 12.5414 13.5 12.799 12.9559 13.0092C13.2396 13.5799 13.5708 14.1257 13.9459 14.6409C15.6181 14.1248 17.1877 13.3214 18.5842 12.2667C18.9677 8.51038 17.9921 4.74103 15.8342 1.64253C14.6456 1.06387 13.3846 0.647644 12.085 0.405029ZM6.45671 10.0759C5.998 10.0429 5.56988 9.83357 5.26222 9.49174C4.95457 9.1499 4.79131 8.70217 4.80671 8.24253C4.78898 7.78229 4.95144 7.33327 5.25956 6.99092C5.56767 6.64857 5.99715 6.43988 6.45671 6.4092C6.91627 6.43988 7.34575 6.64857 7.65387 6.99092C7.96198 7.33327 8.12444 7.78229 8.10671 8.24253C8.12444 8.70277 7.96198 9.15179 7.65387 9.49414C7.34575 9.83649 6.91627 10.0452 6.45671 10.0759ZM12.5434 10.0759C12.0847 10.0429 11.6565 9.83357 11.3489 9.49174C11.0412 9.1499 10.878 8.70217 10.8934 8.24253C10.8757 7.78229 11.0381 7.33327 11.3462 6.99092C11.6543 6.64857 12.0838 6.43988 12.5434 6.4092C13.0038 6.43759 13.4347 6.64561 13.7432 6.98848C14.0518 7.33136 14.2135 7.78168 14.1934 8.24253C14.2135 8.70338 14.0518 9.1537 13.7432 9.49658C13.4347 9.83945 13.0038 10.0475 12.5434 10.0759Z" fill="white"/>
</svg>
