<svg width="23" height="23" viewBox="0 0 23 23" fill="none" xmlns="http://www.w3.org/2000/svg">
<path d="M21.0996 11.5208C21.0996 17.2491 16.6196 21.8981 11.0996 21.8981C5.57961 21.8981 1.09961 17.2491 1.09961 11.5208C1.09961 5.79249 5.57961 1.14343 11.0996 1.14343C16.6196 1.14343 21.0996 5.79249 21.0996 11.5208Z" fill="white"/>
<path d="M6.03954 11.8736L6.07954 11.8113L8.67954 7.59809C8.71954 7.53583 8.79954 7.53583 8.83954 7.61885C9.27954 8.63583 9.63954 9.88111 9.47954 10.6698C9.39954 11.0019 9.19954 11.4377 8.95954 11.8321C8.93954 11.8943 8.89954 11.9566 8.85954 11.9981C8.83954 12.0188 8.81954 12.0396 8.77954 12.0396H6.09954C6.03954 12.0188 5.99954 11.9358 6.03954 11.8736Z" fill="#754142"/>
<path d="M17.6203 12.6622V13.3264C17.6203 13.3679 17.6003 13.3886 17.5603 13.4094C17.3603 13.4924 16.6603 13.8245 16.3803 14.2396C15.6403 15.2981 15.0803 16.8132 13.8403 16.8132H8.62027C6.78027 16.8132 5.28027 15.2566 5.28027 13.3264V13.2641C5.28027 13.2226 5.32027 13.1811 5.36027 13.1811H8.30027C8.36027 13.1811 8.40027 13.2434 8.40027 13.2849C8.38027 13.4717 8.42027 13.6792 8.50027 13.866C8.68027 14.2396 9.04027 14.4471 9.42027 14.4471H10.8603V13.2849H9.44027C9.36027 13.2849 9.32027 13.2019 9.36027 13.1396C9.38027 13.1188 9.40027 13.0981 9.42027 13.0566C9.56027 12.849 9.74027 12.5585 9.94027 12.2056C10.0803 11.9773 10.2003 11.7075 10.3003 11.4585C10.3203 11.417 10.3403 11.3754 10.3603 11.3132C10.3803 11.2302 10.4203 11.1471 10.4403 11.0849C10.4603 11.0226 10.4803 10.9603 10.5003 10.8981C10.5403 10.6905 10.5603 10.4622 10.5603 10.2132C10.5603 10.1302 10.5603 10.0264 10.5403 9.92261C10.5403 9.81884 10.5203 9.71506 10.5203 9.61129C10.5203 9.52827 10.5003 9.4245 10.4803 9.34148C10.4603 9.1962 10.4403 9.07167 10.4003 8.92639L10.3803 8.88487C10.3603 8.80186 10.3403 8.69808 10.3003 8.61507C10.2203 8.3245 10.1203 8.03393 10.0203 7.78488C9.98027 7.6811 9.94027 7.57733 9.90027 7.47356C9.84027 7.32827 9.78027 7.18299 9.72027 7.05846C9.70027 6.9962 9.66027 6.95469 9.64027 6.89242C9.62027 6.83016 9.58027 6.76789 9.56027 6.70563C9.54027 6.66412 9.52027 6.62261 9.50027 6.5811L9.32027 6.24903C9.30027 6.20752 9.34027 6.14525 9.38027 6.16601L10.4803 6.47733L10.6203 6.51884L10.7803 6.56035L10.8403 6.5811V5.8962C10.8403 5.56412 11.1003 5.29431 11.4003 5.29431C11.5603 5.29431 11.7003 5.35657 11.8003 5.46035C11.9003 5.56412 11.9603 5.7094 11.9603 5.87544V6.87167L12.0803 6.91318C12.0803 6.91318 12.1003 6.91318 12.1003 6.93393C12.1203 6.95469 12.1603 6.9962 12.2203 7.03771C12.2603 7.07922 12.3003 7.12073 12.3603 7.16224C12.4603 7.24525 12.6003 7.36978 12.7403 7.49431C12.7803 7.53582 12.8203 7.55657 12.8403 7.59808C13.0203 7.76412 13.2203 7.97167 13.4203 8.19997C13.4803 8.26224 13.5203 8.3245 13.5803 8.38676C13.6403 8.44903 13.6803 8.53205 13.7403 8.59431C13.8003 8.67733 13.8803 8.7811 13.9403 8.86412C13.9603 8.90563 14.0003 8.94714 14.0203 9.0094C14.1003 9.13393 14.1603 9.25846 14.2403 9.38299C14.2603 9.44525 14.3003 9.50752 14.3203 9.56978C14.4003 9.73582 14.4603 9.90186 14.4803 10.0886C14.5003 10.1302 14.5003 10.1717 14.5003 10.1924C14.5203 10.2339 14.5203 10.2962 14.5203 10.3585C14.5403 10.5453 14.5203 10.7113 14.5003 10.8981C14.4803 10.9811 14.4603 11.0434 14.4403 11.1264C14.4203 11.1886 14.4003 11.2717 14.3603 11.3547C14.3003 11.5 14.2203 11.6453 14.1403 11.7905C14.1203 11.832 14.0803 11.8943 14.0403 11.9566C14.0003 12.0188 13.9603 12.0603 13.9403 12.1226C13.9003 12.1849 13.8403 12.2471 13.8003 12.3094C13.7603 12.3717 13.7203 12.4339 13.6603 12.4962C13.6003 12.5792 13.5203 12.6622 13.4603 12.7453C13.4203 12.7868 13.3803 12.849 13.3203 12.8905C13.2803 12.932 13.2403 12.9943 13.1803 13.0358C13.1203 13.0981 13.0603 13.1603 13.0003 13.2019L12.8803 13.3056C12.8603 13.3264 12.8403 13.3264 12.8203 13.3264H11.9403V14.4886H13.0403C13.2803 14.4886 13.5203 14.4056 13.7003 14.2396C13.7603 14.1773 14.0403 13.9283 14.3803 13.5547C14.4003 13.5339 14.4003 13.5339 14.4203 13.5339L17.4603 12.6207C17.5803 12.5585 17.6203 12.6 17.6203 12.6622Z" fill="#754142"/>
</svg>
