<svg width="19" height="15" viewBox="0 0 19 15" fill="none" xmlns="http://www.w3.org/2000/svg">
<path d="M16.4966 3.83058C16.5085 3.991 16.5085 4.1505 16.5085 4.31C16.5085 9.19125 12.7933 14.8159 6.00351 14.8159C3.91167 14.8159 1.96834 14.21 0.333008 13.1577C0.630008 13.1916 0.916008 13.2035 1.22492 13.2035C2.88683 13.2075 4.50168 12.6518 5.80917 11.6259C5.03864 11.612 4.2917 11.3578 3.67264 10.8988C3.05358 10.4398 2.59331 9.7989 2.35609 9.06567C2.58434 9.09958 2.81351 9.1225 3.05367 9.1225C3.38459 9.1225 3.71734 9.07667 4.02626 8.99692C3.19004 8.82808 2.43811 8.37482 1.89832 7.71421C1.35854 7.0536 1.06423 6.22643 1.06542 5.37333V5.3275C1.55767 5.60158 2.12876 5.773 2.73376 5.79592C2.22692 5.45912 1.81133 5.0021 1.52407 4.46564C1.2368 3.92918 1.08679 3.32995 1.08742 2.72142C1.08742 2.03575 1.26984 1.40692 1.58976 0.858749C2.51755 2.00002 3.67472 2.93368 4.98632 3.59927C6.29791 4.26486 7.73469 4.64753 9.20359 4.7225C9.14676 4.4475 9.11192 4.16242 9.11192 3.87642C9.11168 3.39146 9.20702 2.91122 9.3925 2.46314C9.57797 2.01505 9.84993 1.60792 10.1928 1.265C10.5358 0.922092 10.9429 0.650126 11.391 0.464654C11.8391 0.279182 12.3193 0.183842 12.8043 0.184082C13.8676 0.184082 14.8273 0.629582 15.502 1.35008C16.3286 1.19023 17.1213 0.888469 17.845 0.458166C17.5695 1.31141 16.9923 2.03493 16.2216 2.49317C16.9547 2.40955 17.6712 2.21675 18.3473 1.92117C17.8424 2.65734 17.2167 3.3029 16.4966 3.83058Z" fill="white"/>
</svg>
